<mxfile host="Electron" agent="Mozilla/5.0 (Windows NT 10.0; Win64; x64) AppleWebKit/537.36 (KHTML, like Gecko) draw.io/24.7.17 Chrome/128.0.6613.36 Electron/32.0.1 Safari/537.36" version="24.7.17">
  <diagram id="C5RBs43oDa-KdzZeNtuy" name="Page-1">
    <mxGraphModel dx="1021" dy="605" grid="1" gridSize="10" guides="1" tooltips="1" connect="1" arrows="1" fold="1" page="1" pageScale="1" pageWidth="827" pageHeight="1169" math="0" shadow="0">
      <root>
        <mxCell id="WIyWlLk6GJQsqaUBKTNV-0" />
        <mxCell id="WIyWlLk6GJQsqaUBKTNV-1" parent="WIyWlLk6GJQsqaUBKTNV-0" />
        <mxCell id="RWut3dxd2GzsLfx9wLsy-2" value="" style="edgeStyle=orthogonalEdgeStyle;rounded=0;orthogonalLoop=1;jettySize=auto;html=1;" edge="1" parent="WIyWlLk6GJQsqaUBKTNV-1" source="RWut3dxd2GzsLfx9wLsy-0" target="RWut3dxd2GzsLfx9wLsy-1">
          <mxGeometry relative="1" as="geometry" />
        </mxCell>
        <mxCell id="RWut3dxd2GzsLfx9wLsy-0" value="List_of_books" style="ellipse;whiteSpace=wrap;html=1;" vertex="1" parent="WIyWlLk6GJQsqaUBKTNV-1">
          <mxGeometry x="370" y="10" width="120" height="40" as="geometry" />
        </mxCell>
        <mxCell id="RWut3dxd2GzsLfx9wLsy-4" value="" style="edgeStyle=orthogonalEdgeStyle;rounded=0;orthogonalLoop=1;jettySize=auto;html=1;" edge="1" parent="WIyWlLk6GJQsqaUBKTNV-1" source="RWut3dxd2GzsLfx9wLsy-1" target="RWut3dxd2GzsLfx9wLsy-3">
          <mxGeometry relative="1" as="geometry" />
        </mxCell>
        <mxCell id="RWut3dxd2GzsLfx9wLsy-1" value="output &quot;Lisf of books:&quot;" style="shape=parallelogram;perimeter=parallelogramPerimeter;whiteSpace=wrap;html=1;fixedSize=1;" vertex="1" parent="WIyWlLk6GJQsqaUBKTNV-1">
          <mxGeometry x="360" y="70" width="140" height="40" as="geometry" />
        </mxCell>
        <mxCell id="RWut3dxd2GzsLfx9wLsy-6" value="" style="edgeStyle=orthogonalEdgeStyle;rounded=0;orthogonalLoop=1;jettySize=auto;html=1;" edge="1" parent="WIyWlLk6GJQsqaUBKTNV-1" source="RWut3dxd2GzsLfx9wLsy-3" target="RWut3dxd2GzsLfx9wLsy-5">
          <mxGeometry relative="1" as="geometry" />
        </mxCell>
        <mxCell id="RWut3dxd2GzsLfx9wLsy-3" value="i = 0" style="whiteSpace=wrap;html=1;" vertex="1" parent="WIyWlLk6GJQsqaUBKTNV-1">
          <mxGeometry x="390" y="130" width="80" height="30" as="geometry" />
        </mxCell>
        <mxCell id="RWut3dxd2GzsLfx9wLsy-8" value="" style="edgeStyle=orthogonalEdgeStyle;rounded=0;orthogonalLoop=1;jettySize=auto;html=1;" edge="1" parent="WIyWlLk6GJQsqaUBKTNV-1" source="RWut3dxd2GzsLfx9wLsy-5" target="RWut3dxd2GzsLfx9wLsy-7">
          <mxGeometry relative="1" as="geometry" />
        </mxCell>
        <mxCell id="RWut3dxd2GzsLfx9wLsy-10" value="" style="edgeStyle=orthogonalEdgeStyle;rounded=0;orthogonalLoop=1;jettySize=auto;html=1;" edge="1" parent="WIyWlLk6GJQsqaUBKTNV-1" source="RWut3dxd2GzsLfx9wLsy-5" target="RWut3dxd2GzsLfx9wLsy-9">
          <mxGeometry relative="1" as="geometry" />
        </mxCell>
        <mxCell id="RWut3dxd2GzsLfx9wLsy-5" value="i &amp;lt; 10" style="rhombus;whiteSpace=wrap;html=1;" vertex="1" parent="WIyWlLk6GJQsqaUBKTNV-1">
          <mxGeometry x="390" y="180" width="80" height="50" as="geometry" />
        </mxCell>
        <mxCell id="RWut3dxd2GzsLfx9wLsy-7" value="Finish" style="ellipse;whiteSpace=wrap;html=1;" vertex="1" parent="WIyWlLk6GJQsqaUBKTNV-1">
          <mxGeometry x="550" y="190" width="80" height="30" as="geometry" />
        </mxCell>
        <mxCell id="RWut3dxd2GzsLfx9wLsy-12" value="" style="edgeStyle=orthogonalEdgeStyle;rounded=0;orthogonalLoop=1;jettySize=auto;html=1;" edge="1" parent="WIyWlLk6GJQsqaUBKTNV-1" source="RWut3dxd2GzsLfx9wLsy-9" target="RWut3dxd2GzsLfx9wLsy-11">
          <mxGeometry relative="1" as="geometry" />
        </mxCell>
        <mxCell id="RWut3dxd2GzsLfx9wLsy-9" value="output the name of the book" style="shape=parallelogram;perimeter=parallelogramPerimeter;whiteSpace=wrap;html=1;fixedSize=1;" vertex="1" parent="WIyWlLk6GJQsqaUBKTNV-1">
          <mxGeometry x="370" y="250" width="120" height="50" as="geometry" />
        </mxCell>
        <mxCell id="RWut3dxd2GzsLfx9wLsy-13" style="edgeStyle=orthogonalEdgeStyle;rounded=0;orthogonalLoop=1;jettySize=auto;html=1;exitX=0;exitY=0.5;exitDx=0;exitDy=0;" edge="1" parent="WIyWlLk6GJQsqaUBKTNV-1" source="RWut3dxd2GzsLfx9wLsy-11" target="RWut3dxd2GzsLfx9wLsy-5">
          <mxGeometry relative="1" as="geometry">
            <mxPoint x="380" y="180" as="targetPoint" />
            <Array as="points">
              <mxPoint x="250" y="335" />
              <mxPoint x="250" y="180" />
            </Array>
          </mxGeometry>
        </mxCell>
        <mxCell id="RWut3dxd2GzsLfx9wLsy-11" value="i++" style="whiteSpace=wrap;html=1;" vertex="1" parent="WIyWlLk6GJQsqaUBKTNV-1">
          <mxGeometry x="390" y="320" width="80" height="30" as="geometry" />
        </mxCell>
        <mxCell id="RWut3dxd2GzsLfx9wLsy-14" value="+" style="text;html=1;align=center;verticalAlign=middle;whiteSpace=wrap;rounded=0;" vertex="1" parent="WIyWlLk6GJQsqaUBKTNV-1">
          <mxGeometry x="384" y="220" width="60" height="30" as="geometry" />
        </mxCell>
        <mxCell id="RWut3dxd2GzsLfx9wLsy-15" value="-" style="text;html=1;align=center;verticalAlign=middle;whiteSpace=wrap;rounded=0;" vertex="1" parent="WIyWlLk6GJQsqaUBKTNV-1">
          <mxGeometry x="480" y="170" width="60" height="30" as="geometry" />
        </mxCell>
      </root>
    </mxGraphModel>
  </diagram>
</mxfile>
